<?xml version="1.0" standalone="no"?>
<!DOCTYPE svg PUBLIC "-//W3C//DTD SVG 20010904//EN"
 "http://www.w3.org/TR/2001/REC-SVG-20010904/DTD/svg10.dtd">
<svg version="1.0" xmlns="http://www.w3.org/2000/svg"
 width="465.000000pt" height="465.000000pt" viewBox="0 0 465.000000 465.000000"
 preserveAspectRatio="xMidYMid meet">

<g transform="translate(0.000000,465.000000) scale(0.100000,-0.100000)"
fill="#000000" stroke="none">
<path d="M2250 3834 c-44 -8 -143 -63 -185 -102 -137 -126 -244 -347 -247
-507 -1 -85 9 -106 68 -141 136 -80 441 -97 611 -35 74 27 157 85 188 132 15
23 32 69 39 103 12 54 11 63 -4 83 -17 21 -21 56 -7 61 4 1 6 -1 5 -4 -6 -14
43 -23 67 -12 26 11 34 28 14 28 -6 0 -24 11 -41 25 -33 28 -58 34 -37 8 13
-15 12 -15 -8 -3 -12 8 -20 17 -17 21 2 4 -9 10 -25 14 -23 5 -31 14 -36 36
-4 17 -19 45 -34 62 -54 65 -54 64 -36 90 12 19 13 30 5 51 -5 15 -10 41 -10
57 0 27 -2 29 -20 19 -11 -6 -20 -20 -20 -31 0 -11 -4 -18 -9 -15 -5 4 -14 -6
-19 -21 l-10 -28 -18 42 c-11 23 -30 47 -43 53 -27 12 -133 21 -171 14z m274
-90 c3 -8 2 -12 -4 -9 -6 3 -10 10 -10 16 0 14 7 11 14 -7z m-384 -38 c0 -3
-4 -8 -10 -11 -5 -3 -10 -1 -10 4 0 6 5 11 10 11 6 0 10 -2 10 -4z m170 -120
c0 -3 -4 -8 -10 -11 -5 -3 -10 -1 -10 4 0 6 5 11 10 11 6 0 10 -2 10 -4z m55
-116 c-3 -5 -11 -10 -16 -10 -6 0 -7 5 -4 10 3 6 11 10 16 10 6 0 7 -4 4 -10z
m-405 -10 c0 -5 -4 -10 -10 -10 -5 0 -10 5 -10 10 0 6 5 10 10 10 6 0 10 -4
10 -10z m260 6 c0 -2 -7 -6 -15 -10 -8 -3 -15 -1 -15 4 0 6 7 10 15 10 8 0 15
-2 15 -4z m350 -6 c0 -5 -5 -10 -11 -10 -5 0 -7 5 -4 10 3 6 8 10 11 10 2 0 4
-4 4 -10z m135 -10 c-3 -5 -11 -10 -16 -10 -6 0 -7 5 -4 10 3 6 11 10 16 10 6
0 7 -4 4 -10z m-645 -14 c0 -3 -4 -8 -10 -11 -5 -3 -10 -1 -10 4 0 6 5 11 10
11 6 0 10 -2 10 -4z m395 -56 c-3 -5 -10 -10 -16 -10 -5 0 -9 5 -9 10 0 6 7
10 16 10 8 0 12 -4 9 -10z m227 -22 c-7 -7 -12 -8 -12 -2 0 6 3 14 7 17 3 4 9
5 12 2 2 -3 -1 -11 -7 -17z m-112 -28 c0 -5 -5 -10 -11 -10 -5 0 -7 5 -4 10 3
6 8 10 11 10 2 0 4 -4 4 -10z m-668 -22 c-7 -7 -12 -8 -12 -2 0 14 12 26 19
19 2 -3 -1 -11 -7 -17z m268 13 c0 -5 -7 -12 -16 -15 -14 -5 -15 -4 -4 9 14
17 20 19 20 6z m-145 -51 c-3 -5 -11 -10 -16 -10 -6 0 -7 5 -4 10 3 6 11 10
16 10 6 0 7 -4 4 -10z m435 -30 c0 -5 -7 -10 -15 -10 -8 0 -15 5 -15 10 0 6 7
10 15 10 8 0 15 -4 15 -10z m160 -24 c0 -2 -7 -9 -15 -16 -12 -10 -15 -10 -15
4 0 9 7 16 15 16 8 0 15 -2 15 -4z m-740 -21 c-7 -9 -15 -13 -17 -11 -7 7 7
26 19 26 6 0 6 -6 -2 -15z m430 5 c0 -5 -7 -10 -16 -10 -8 0 -12 5 -9 10 3 6
10 10 16 10 5 0 9 -4 9 -10z m-130 -20 c0 -5 -7 -10 -16 -10 -8 0 -12 5 -9 10
3 6 10 10 16 10 5 0 9 -4 9 -10z m-170 -30 c0 -5 -9 -10 -21 -10 -11 0 -17 5
-14 10 3 6 13 10 21 10 8 0 14 -4 14 -10z m300 -60 c0 -5 -7 -10 -16 -10 -8 0
-12 5 -9 10 3 6 10 10 16 10 5 0 9 -4 9 -10z m-200 -10 c0 -5 -9 -10 -21 -10
-11 0 -17 5 -14 10 3 6 13 10 21 10 8 0 14 -4 14 -10z"/>
<path d="M3570 1909 c-25 -5 -115 -16 -200 -25 -85 -8 -249 -31 -365 -49 -200
-32 -259 -39 -525 -66 -63 -6 -194 -26 -290 -45 -270 -52 -273 -53 -485 -74
-198 -20 -268 -29 -375 -49 -184 -34 -303 -50 -442 -62 l-158 -13 0 -77 c0
-73 1 -76 23 -73 12 1 76 8 142 15 66 6 185 25 265 41 246 49 302 58 381 58
76 0 142 9 409 54 80 13 190 27 245 31 55 4 138 13 185 22 178 30 330 51 460
63 140 12 202 22 405 65 92 20 303 43 408 45 4 0 7 34 7 75 0 84 4 82 -90 64z"/>
</g>
</svg>
